M48
METRIC,LZ,000.000
;FILE_FORMAT=3:3
;TYPE=PLATED
;Layer: PTH_Through
;EasyEDA v6.5.1, 2022-03-22 03:02:58
;bf67d1bc75334a149d351373cee676c1,2944274e32f549b18320765f93dd2344,10
;Gerber Generator version 0.2
;Holesize 1 = 0.305 mm
T01C0.305
;Holesize 2 = 0.800 mm
T02C0.800
;Holesize 3 = 0.889 mm
T03C0.889
;Holesize 4 = 0.915 mm
T04C0.915
;Holesize 5 = 1.000 mm
T05C1.000
;Holesize 6 = 1.101 mm
T06C1.101
;Holesize 7 = 1.524 mm
T07C1.524
%
G05
G90
T01
X017780Y071882
X035560Y071882
X053340Y071755
X071120Y071882
X088900Y071882
X106680Y071882
X124460Y071755
X142240Y071882
X119380Y020320
X121920Y017780
X124587Y015240
X127000Y012700
X129540Y010160
X132080Y007620
X134620Y003810
T02
X020320Y080010
X020320Y081280
X020320Y082550
X038100Y080010
X038100Y081280
X038100Y082550
X055880Y080010
X055880Y081280
X055880Y082550
X073660Y080010
X073660Y081280
X073660Y082550
X091440Y080010
X091440Y081280
X091440Y082550
X109220Y080010
X109220Y081280
X109220Y082550
X127000Y080010
X127000Y081280
X127000Y082550
X144780Y080010
X144780Y081280
X144780Y082550
T03
X029845Y015240
X029845Y012700
X027305Y015240
X027305Y012700
X024765Y015240
X024765Y012700
X037465Y012700
X037465Y015240
X040005Y012700
X040005Y015240
X042545Y012700
X042545Y015240
X047625Y012700
X045085Y012700
X047625Y015240
X045085Y015240
X047625Y017780
X045085Y017780
X047625Y020320
X045085Y020320
X047625Y022860
X045085Y022860
X047625Y025400
X045085Y025400
X047625Y027940
X045085Y027940
X047625Y030480
X045085Y030480
X047625Y033020
X045085Y033020
X047625Y035560
X045085Y035560
X047625Y038100
X045085Y038100
X047625Y040640
X045085Y040640
X047625Y043180
X045085Y043180
X047625Y045720
X045085Y045720
X047625Y048260
X045085Y048260
X047625Y050800
X045085Y050800
X047625Y053340
X045085Y053340
X047625Y055880
X045085Y055880
X047625Y058420
X045085Y058420
X047625Y060960
X045085Y060960
X012065Y060960
X014605Y060960
X012065Y058420
X014605Y058420
X012065Y055880
X014605Y055880
X012065Y053340
X014605Y053340
X012065Y050800
X014605Y050800
X012065Y048260
X014605Y048260
X012065Y045720
X014605Y045720
X012065Y043180
X014605Y043180
X012065Y040640
X014605Y040640
X012065Y038100
X014605Y038100
X012065Y035560
X014605Y035560
X012065Y033020
X014605Y033020
X012065Y030480
X014605Y030480
X012065Y027940
X014605Y027940
X012065Y025400
X014605Y025400
X012065Y022860
X014605Y022860
X012065Y020320
X014605Y020320
X012065Y017780
X014605Y017780
X012065Y015240
X014605Y015240
X012065Y012700
X014605Y012700
T04
X012700Y073533
X015240Y073533
X020320Y073660
X022860Y073660
X038100Y073660
X040640Y073660
X030480Y073533
X033020Y073533
X055880Y073660
X058420Y073660
X048260Y073533
X050800Y073533
X073660Y073660
X076200Y073660
X066040Y073533
X068580Y073533
X091440Y073660
X093980Y073660
X083820Y073533
X086360Y073533
X109220Y073660
X111760Y073660
X101600Y073533
X104140Y073533
X127000Y073660
X129540Y073660
X119380Y073533
X121920Y073533
X144780Y073660
X147320Y073660
X137160Y073533
X139700Y073533
T05
X137414Y062992
X137414Y060452
X137414Y057912
X137414Y055372
X137414Y052832
X137414Y050292
X137414Y047752
X137414Y045212
X137414Y042672
T06
X143637Y011430
X146177Y011430
X143637Y013970
X146177Y013970
X143637Y016510
X146177Y016510
X143637Y019050
X146177Y019050
X143637Y021590
X146177Y021590
X143637Y024130
X146177Y024130
X143637Y026670
X146177Y026670
X143637Y029210
X146177Y029210
X143637Y031750
X146177Y031750
X143637Y034290
X146177Y034290
X143637Y036830
X146177Y036830
X143637Y039370
X146177Y039370
X143637Y041910
X146177Y041910
X143637Y044450
X146177Y044450
X143637Y046990
X146177Y046990
X143637Y049530
X146177Y049530
X143637Y052070
X146177Y052070
X143637Y054610
X146177Y054610
X143637Y057150
X146177Y057150
X143637Y059690
X146177Y059690
T07
X065121Y094500
X071120Y108700
X077120Y106700
X065120Y106700
X077119Y094500
X047341Y094500
X053340Y108700
X059340Y106700
X047340Y106700
X059339Y094500
X029561Y094500
X035560Y108700
X041560Y106700
X029560Y106700
X041559Y094500
X011781Y094500
X017780Y108700
X023780Y106700
X011780Y106700
X023779Y094500
X136241Y094500
X142240Y108700
X148240Y106700
X136240Y106700
X148239Y094500
X118461Y094500
X124460Y108700
X130460Y106700
X118460Y106700
X130459Y094500
X100681Y094500
X106680Y108700
X112680Y106700
X100680Y106700
X112679Y094500
X082901Y094500
X088900Y108700
X094900Y106700
X082900Y106700
X094899Y094500
M30
