G04 Layer: TopSolderMaskLayer*
G04 EasyEDA v6.5.1, 2022-03-22 03:02:58*
G04 bf67d1bc75334a149d351373cee676c1,2944274e32f549b18320765f93dd2344,10*
G04 Gerber Generator version 0.2*
G04 Scale: 100 percent, Rotated: No, Reflected: No *
G04 Dimensions in millimeters *
G04 leading zeros omitted , absolute positions ,4 integer and 5 decimal *
%FSLAX45Y45*%
%MOMM*%

%ADD34C,1.0016*%
%ADD35C,1.6764*%
%ADD37C,1.6256*%
%ADD38R,1.9000X1.9000*%
%ADD39C,1.9000*%
%ADD43C,2.8956*%
%ADD45C,1.7016*%

%LPD*%
D34*
X2066998Y8001000D02*
G01*
X1996998Y8001000D01*
X2066998Y8128000D02*
G01*
X1996998Y8128000D01*
X3844998Y8001000D02*
G01*
X3774998Y8001000D01*
X3844998Y8128000D02*
G01*
X3774998Y8128000D01*
X5622998Y8001000D02*
G01*
X5552998Y8001000D01*
X5622998Y8128000D02*
G01*
X5552998Y8128000D01*
X7400998Y8001000D02*
G01*
X7330998Y8001000D01*
X7400998Y8128000D02*
G01*
X7330998Y8128000D01*
X9178998Y8001000D02*
G01*
X9108998Y8001000D01*
X9178998Y8128000D02*
G01*
X9108998Y8128000D01*
X10956998Y8001000D02*
G01*
X10886998Y8001000D01*
X10956998Y8128000D02*
G01*
X10886998Y8128000D01*
X12734998Y8001000D02*
G01*
X12664998Y8001000D01*
X12734998Y8128000D02*
G01*
X12664998Y8128000D01*
X14512998Y8001000D02*
G01*
X14442998Y8001000D01*
X14512998Y8128000D02*
G01*
X14442998Y8128000D01*
D35*
G01*
X2984500Y1524000D03*
G01*
X2984500Y1270000D03*
G01*
X2730500Y1524000D03*
G01*
X2730500Y1270000D03*
G01*
X2476500Y1524000D03*
G36*
X2392679Y1186179D02*
G01*
X2392679Y1353820D01*
X2560320Y1353820D01*
X2560320Y1186179D01*
G37*
G36*
X3662679Y1186179D02*
G01*
X3662679Y1353820D01*
X3830320Y1353820D01*
X3830320Y1186179D01*
G37*
G01*
X3746500Y1524000D03*
G01*
X4000500Y1270000D03*
G01*
X4000500Y1524000D03*
G01*
X4254500Y1270000D03*
G01*
X4254500Y1524000D03*
G01*
X4762500Y1270000D03*
G01*
X4508500Y1270000D03*
G01*
X4762500Y1524000D03*
G01*
X4508500Y1524000D03*
G01*
X4762500Y1778000D03*
G01*
X4508500Y1778000D03*
G01*
X4762500Y2032000D03*
G01*
X4508500Y2032000D03*
G01*
X4762500Y2286000D03*
G01*
X4508500Y2286000D03*
G01*
X4762500Y2540000D03*
G01*
X4508500Y2540000D03*
G01*
X4762500Y2794000D03*
G01*
X4508500Y2794000D03*
G01*
X4762500Y3048000D03*
G01*
X4508500Y3048000D03*
G01*
X4762500Y3302000D03*
G01*
X4508500Y3302000D03*
G01*
X4762500Y3556000D03*
G01*
X4508500Y3556000D03*
G01*
X4762500Y3810000D03*
G01*
X4508500Y3810000D03*
G01*
X4762500Y4064000D03*
G01*
X4508500Y4064000D03*
G01*
X4762500Y4318000D03*
G01*
X4508500Y4318000D03*
G01*
X4762500Y4572000D03*
G01*
X4508500Y4572000D03*
G01*
X4762500Y4826000D03*
G01*
X4508500Y4826000D03*
G01*
X4762500Y5080000D03*
G01*
X4508500Y5080000D03*
G01*
X4762500Y5334000D03*
G01*
X4508500Y5334000D03*
G01*
X4762500Y5588000D03*
G01*
X4508500Y5588000D03*
G01*
X4762500Y5842000D03*
G01*
X4508500Y5842000D03*
G01*
X4762500Y6096000D03*
G36*
X4424679Y6012179D02*
G01*
X4424679Y6179820D01*
X4592320Y6179820D01*
X4592320Y6012179D01*
G37*
D37*
G01*
X1270000Y7353300D03*
G01*
X1524000Y7353300D03*
G01*
X2032000Y7366000D03*
G01*
X2286000Y7366000D03*
G01*
X3810000Y7366000D03*
G01*
X4064000Y7366000D03*
G01*
X3048000Y7353300D03*
G01*
X3302000Y7353300D03*
G01*
X5588000Y7366000D03*
G01*
X5842000Y7366000D03*
G01*
X4826000Y7353300D03*
G01*
X5080000Y7353300D03*
G01*
X7366000Y7366000D03*
G01*
X7620000Y7366000D03*
G01*
X6604000Y7353300D03*
G01*
X6858000Y7353300D03*
G01*
X9144000Y7366000D03*
G01*
X9398000Y7366000D03*
G01*
X8382000Y7353300D03*
G01*
X8636000Y7353300D03*
G01*
X10922000Y7366000D03*
G01*
X11176000Y7366000D03*
G01*
X10160000Y7353300D03*
G01*
X10414000Y7353300D03*
G01*
X12700000Y7366000D03*
G01*
X12954000Y7366000D03*
G01*
X11938000Y7353300D03*
G01*
X12192000Y7353300D03*
G01*
X14478000Y7366000D03*
G01*
X14732000Y7366000D03*
G01*
X13716000Y7353300D03*
G01*
X13970000Y7353300D03*
D38*
G01*
X14363700Y1143000D03*
D39*
G01*
X14617700Y1143000D03*
G01*
X14363700Y1397000D03*
G01*
X14617700Y1397000D03*
G01*
X14363700Y1651000D03*
G01*
X14617700Y1651000D03*
G01*
X14363700Y1905000D03*
G01*
X14617700Y1905000D03*
G01*
X14363700Y2159000D03*
G01*
X14617700Y2159000D03*
G01*
X14363700Y2413000D03*
G01*
X14617700Y2413000D03*
G01*
X14363700Y2667000D03*
G01*
X14617700Y2667000D03*
G01*
X14363700Y2921000D03*
G01*
X14617700Y2921000D03*
G01*
X14363700Y3175000D03*
G01*
X14617700Y3175000D03*
G01*
X14363700Y3429000D03*
G01*
X14617700Y3429000D03*
G01*
X14363700Y3683000D03*
G01*
X14617700Y3683000D03*
G01*
X14363700Y3937000D03*
G01*
X14617700Y3937000D03*
G01*
X14363700Y4191000D03*
G01*
X14617700Y4191000D03*
G01*
X14363700Y4445000D03*
G01*
X14617700Y4445000D03*
G01*
X14363700Y4699000D03*
G01*
X14617700Y4699000D03*
G01*
X14363700Y4953000D03*
G01*
X14617700Y4953000D03*
G01*
X14363700Y5207000D03*
G01*
X14617700Y5207000D03*
G01*
X14363700Y5461000D03*
G01*
X14617700Y5461000D03*
G01*
X14363700Y5715000D03*
G01*
X14617700Y5715000D03*
G01*
X14363700Y5969000D03*
G01*
X14617700Y5969000D03*
G36*
X1902205Y8672829D02*
G01*
X1902205Y8853170D01*
X2092452Y8853170D01*
X2092452Y8672829D01*
G37*
G36*
X1463547Y8672829D02*
G01*
X1463547Y8853170D01*
X1653794Y8853170D01*
X1653794Y8672829D01*
G37*
G36*
X3680206Y8672829D02*
G01*
X3680206Y8853170D01*
X3870452Y8853170D01*
X3870452Y8672829D01*
G37*
G36*
X3241547Y8672829D02*
G01*
X3241547Y8853170D01*
X3431793Y8853170D01*
X3431793Y8672829D01*
G37*
G36*
X5458206Y8672829D02*
G01*
X5458206Y8853170D01*
X5648452Y8853170D01*
X5648452Y8672829D01*
G37*
G36*
X5019547Y8672829D02*
G01*
X5019547Y8853170D01*
X5209793Y8853170D01*
X5209793Y8672829D01*
G37*
G36*
X7236206Y8672829D02*
G01*
X7236206Y8853170D01*
X7426452Y8853170D01*
X7426452Y8672829D01*
G37*
G36*
X6797547Y8672829D02*
G01*
X6797547Y8853170D01*
X6987793Y8853170D01*
X6987793Y8672829D01*
G37*
G36*
X9014206Y8672829D02*
G01*
X9014206Y8853170D01*
X9204452Y8853170D01*
X9204452Y8672829D01*
G37*
G36*
X8575547Y8672829D02*
G01*
X8575547Y8853170D01*
X8765793Y8853170D01*
X8765793Y8672829D01*
G37*
G36*
X10792206Y8672829D02*
G01*
X10792206Y8853170D01*
X10982452Y8853170D01*
X10982452Y8672829D01*
G37*
G36*
X10353547Y8672829D02*
G01*
X10353547Y8853170D01*
X10543793Y8853170D01*
X10543793Y8672829D01*
G37*
G36*
X12570206Y8672829D02*
G01*
X12570206Y8853170D01*
X12760452Y8853170D01*
X12760452Y8672829D01*
G37*
G36*
X12131547Y8672829D02*
G01*
X12131547Y8853170D01*
X12321793Y8853170D01*
X12321793Y8672829D01*
G37*
G36*
X14348206Y8672829D02*
G01*
X14348206Y8853170D01*
X14538452Y8853170D01*
X14538452Y8672829D01*
G37*
G36*
X13909547Y8672829D02*
G01*
X13909547Y8853170D01*
X14099793Y8853170D01*
X14099793Y8672829D01*
G37*
G36*
X1122679Y6012179D02*
G01*
X1122679Y6179820D01*
X1290320Y6179820D01*
X1290320Y6012179D01*
G37*
D35*
G01*
X1460500Y6096000D03*
G01*
X1206500Y5842000D03*
G01*
X1460500Y5842000D03*
G01*
X1206500Y5588000D03*
G01*
X1460500Y5588000D03*
G01*
X1206500Y5334000D03*
G01*
X1460500Y5334000D03*
G01*
X1206500Y5080000D03*
G01*
X1460500Y5080000D03*
G01*
X1206500Y4826000D03*
G01*
X1460500Y4826000D03*
G01*
X1206500Y4572000D03*
G01*
X1460500Y4572000D03*
G01*
X1206500Y4318000D03*
G01*
X1460500Y4318000D03*
G01*
X1206500Y4064000D03*
G01*
X1460500Y4064000D03*
G01*
X1206500Y3810000D03*
G01*
X1460500Y3810000D03*
G01*
X1206500Y3556000D03*
G01*
X1460500Y3556000D03*
G01*
X1206500Y3302000D03*
G01*
X1460500Y3302000D03*
G01*
X1206500Y3048000D03*
G01*
X1460500Y3048000D03*
G01*
X1206500Y2794000D03*
G01*
X1460500Y2794000D03*
G01*
X1206500Y2540000D03*
G01*
X1460500Y2540000D03*
G01*
X1206500Y2286000D03*
G01*
X1460500Y2286000D03*
G01*
X1206500Y2032000D03*
G01*
X1460500Y2032000D03*
G01*
X1206500Y1778000D03*
G01*
X1460500Y1778000D03*
G01*
X1206500Y1524000D03*
G01*
X1460500Y1524000D03*
G01*
X1206500Y1270000D03*
G01*
X1460500Y1270000D03*
G36*
X1946909Y8204962D02*
G01*
X1946909Y8305037D01*
X2117090Y8305037D01*
X2117090Y8204962D01*
G37*
G36*
X3724909Y8204962D02*
G01*
X3724909Y8305037D01*
X3895090Y8305037D01*
X3895090Y8204962D01*
G37*
G36*
X5502909Y8204962D02*
G01*
X5502909Y8305037D01*
X5673090Y8305037D01*
X5673090Y8204962D01*
G37*
G36*
X7280909Y8204962D02*
G01*
X7280909Y8305037D01*
X7451090Y8305037D01*
X7451090Y8204962D01*
G37*
G36*
X9058909Y8204962D02*
G01*
X9058909Y8305037D01*
X9229090Y8305037D01*
X9229090Y8204962D01*
G37*
G36*
X10836909Y8204962D02*
G01*
X10836909Y8305037D01*
X11007090Y8305037D01*
X11007090Y8204962D01*
G37*
G36*
X12614909Y8204962D02*
G01*
X12614909Y8305037D01*
X12785090Y8305037D01*
X12785090Y8204962D01*
G37*
G36*
X14392909Y8204962D02*
G01*
X14392909Y8305037D01*
X14563090Y8305037D01*
X14563090Y8204962D01*
G37*
G36*
X1299971Y8333739D02*
G01*
X1299971Y8430260D01*
X1390650Y8430260D01*
X1390650Y8333739D01*
G37*
G36*
X1149350Y8333739D02*
G01*
X1149350Y8430260D01*
X1240028Y8430260D01*
X1240028Y8333739D01*
G37*
G36*
X1299971Y7825739D02*
G01*
X1299971Y7922260D01*
X1390650Y7922260D01*
X1390650Y7825739D01*
G37*
G36*
X1149350Y7825739D02*
G01*
X1149350Y7922260D01*
X1240028Y7922260D01*
X1240028Y7825739D01*
G37*
G36*
X1553971Y8079739D02*
G01*
X1553971Y8176260D01*
X1644650Y8176260D01*
X1644650Y8079739D01*
G37*
G36*
X1403350Y8079739D02*
G01*
X1403350Y8176260D01*
X1494028Y8176260D01*
X1494028Y8079739D01*
G37*
G36*
X3090672Y8321039D02*
G01*
X3090672Y8417560D01*
X3181350Y8417560D01*
X3181350Y8321039D01*
G37*
G36*
X2940050Y8321039D02*
G01*
X2940050Y8417560D01*
X3030727Y8417560D01*
X3030727Y8321039D01*
G37*
G36*
X3077972Y7813039D02*
G01*
X3077972Y7909560D01*
X3168650Y7909560D01*
X3168650Y7813039D01*
G37*
G36*
X2927350Y7813039D02*
G01*
X2927350Y7909560D01*
X3018027Y7909560D01*
X3018027Y7813039D01*
G37*
G36*
X3331972Y8079739D02*
G01*
X3331972Y8176260D01*
X3422650Y8176260D01*
X3422650Y8079739D01*
G37*
G36*
X3181350Y8079739D02*
G01*
X3181350Y8176260D01*
X3272027Y8176260D01*
X3272027Y8079739D01*
G37*
G36*
X4855972Y8333739D02*
G01*
X4855972Y8430260D01*
X4946650Y8430260D01*
X4946650Y8333739D01*
G37*
G36*
X4705350Y8333739D02*
G01*
X4705350Y8430260D01*
X4796027Y8430260D01*
X4796027Y8333739D01*
G37*
G36*
X4855972Y7825739D02*
G01*
X4855972Y7922260D01*
X4946650Y7922260D01*
X4946650Y7825739D01*
G37*
G36*
X4705350Y7825739D02*
G01*
X4705350Y7922260D01*
X4796027Y7922260D01*
X4796027Y7825739D01*
G37*
G36*
X5109972Y8067039D02*
G01*
X5109972Y8163560D01*
X5200650Y8163560D01*
X5200650Y8067039D01*
G37*
G36*
X4959350Y8067039D02*
G01*
X4959350Y8163560D01*
X5050027Y8163560D01*
X5050027Y8067039D01*
G37*
G36*
X6633972Y8333739D02*
G01*
X6633972Y8430260D01*
X6724650Y8430260D01*
X6724650Y8333739D01*
G37*
G36*
X6483350Y8333739D02*
G01*
X6483350Y8430260D01*
X6574027Y8430260D01*
X6574027Y8333739D01*
G37*
G36*
X6633972Y7825739D02*
G01*
X6633972Y7922260D01*
X6724650Y7922260D01*
X6724650Y7825739D01*
G37*
G36*
X6483350Y7825739D02*
G01*
X6483350Y7922260D01*
X6574027Y7922260D01*
X6574027Y7825739D01*
G37*
G36*
X6887972Y8079739D02*
G01*
X6887972Y8176260D01*
X6978650Y8176260D01*
X6978650Y8079739D01*
G37*
G36*
X6737350Y8079739D02*
G01*
X6737350Y8176260D01*
X6828027Y8176260D01*
X6828027Y8079739D01*
G37*
G36*
X8411972Y8333739D02*
G01*
X8411972Y8430260D01*
X8502650Y8430260D01*
X8502650Y8333739D01*
G37*
G36*
X8261350Y8333739D02*
G01*
X8261350Y8430260D01*
X8352027Y8430260D01*
X8352027Y8333739D01*
G37*
G36*
X8411972Y7825739D02*
G01*
X8411972Y7922260D01*
X8502650Y7922260D01*
X8502650Y7825739D01*
G37*
G36*
X8261350Y7825739D02*
G01*
X8261350Y7922260D01*
X8352027Y7922260D01*
X8352027Y7825739D01*
G37*
G36*
X8665972Y8079739D02*
G01*
X8665972Y8176260D01*
X8756650Y8176260D01*
X8756650Y8079739D01*
G37*
G36*
X8515350Y8079739D02*
G01*
X8515350Y8176260D01*
X8606027Y8176260D01*
X8606027Y8079739D01*
G37*
G36*
X10189972Y8333739D02*
G01*
X10189972Y8430260D01*
X10280650Y8430260D01*
X10280650Y8333739D01*
G37*
G36*
X10039350Y8333739D02*
G01*
X10039350Y8430260D01*
X10130027Y8430260D01*
X10130027Y8333739D01*
G37*
G36*
X10189972Y7825739D02*
G01*
X10189972Y7922260D01*
X10280650Y7922260D01*
X10280650Y7825739D01*
G37*
G36*
X10039350Y7825739D02*
G01*
X10039350Y7922260D01*
X10130027Y7922260D01*
X10130027Y7825739D01*
G37*
G36*
X10443972Y8079739D02*
G01*
X10443972Y8176260D01*
X10534650Y8176260D01*
X10534650Y8079739D01*
G37*
G36*
X10293350Y8079739D02*
G01*
X10293350Y8176260D01*
X10384027Y8176260D01*
X10384027Y8079739D01*
G37*
G36*
X11967972Y8333739D02*
G01*
X11967972Y8430260D01*
X12058650Y8430260D01*
X12058650Y8333739D01*
G37*
G36*
X11817350Y8333739D02*
G01*
X11817350Y8430260D01*
X11908027Y8430260D01*
X11908027Y8333739D01*
G37*
G36*
X11967972Y7825739D02*
G01*
X11967972Y7922260D01*
X12058650Y7922260D01*
X12058650Y7825739D01*
G37*
G36*
X11817350Y7825739D02*
G01*
X11817350Y7922260D01*
X11908027Y7922260D01*
X11908027Y7825739D01*
G37*
G36*
X12221972Y8067039D02*
G01*
X12221972Y8163560D01*
X12312650Y8163560D01*
X12312650Y8067039D01*
G37*
G36*
X12071350Y8067039D02*
G01*
X12071350Y8163560D01*
X12162027Y8163560D01*
X12162027Y8067039D01*
G37*
G36*
X13745972Y8333739D02*
G01*
X13745972Y8430260D01*
X13836650Y8430260D01*
X13836650Y8333739D01*
G37*
G36*
X13595350Y8333739D02*
G01*
X13595350Y8430260D01*
X13686027Y8430260D01*
X13686027Y8333739D01*
G37*
G36*
X13745972Y7825739D02*
G01*
X13745972Y7922260D01*
X13836650Y7922260D01*
X13836650Y7825739D01*
G37*
G36*
X13595350Y7825739D02*
G01*
X13595350Y7922260D01*
X13686027Y7922260D01*
X13686027Y7825739D01*
G37*
G36*
X13999972Y8079739D02*
G01*
X13999972Y8176260D01*
X14090650Y8176260D01*
X14090650Y8079739D01*
G37*
G36*
X13849350Y8079739D02*
G01*
X13849350Y8176260D01*
X13940027Y8176260D01*
X13940027Y8079739D01*
G37*
D43*
G01*
X6512052Y9449993D03*
G01*
X7112000Y10870006D03*
G01*
X7711998Y10670006D03*
G01*
X6512001Y10670006D03*
G01*
X7711947Y9449993D03*
G01*
X4734052Y9449993D03*
G01*
X5334000Y10870006D03*
G01*
X5933998Y10670006D03*
G01*
X4734001Y10670006D03*
G01*
X5933947Y9449993D03*
G01*
X2956052Y9449993D03*
G01*
X3556000Y10870006D03*
G01*
X4155998Y10670006D03*
G01*
X2956001Y10670006D03*
G01*
X4155947Y9449993D03*
G01*
X1178052Y9449993D03*
G01*
X1778000Y10870006D03*
G01*
X2377998Y10670006D03*
G01*
X1178001Y10670006D03*
G01*
X2377947Y9449993D03*
G01*
X13624052Y9449993D03*
G01*
X14224000Y10870006D03*
G01*
X14823998Y10670006D03*
G01*
X13624001Y10670006D03*
G01*
X14823947Y9449993D03*
G01*
X11846052Y9449993D03*
G01*
X12446000Y10870006D03*
G01*
X13045998Y10670006D03*
G01*
X11846001Y10670006D03*
G01*
X13045947Y9449993D03*
G01*
X10068052Y9449993D03*
G01*
X10668000Y10870006D03*
G01*
X11267998Y10670006D03*
G01*
X10068001Y10670006D03*
G01*
X11267947Y9449993D03*
G01*
X8290052Y9449993D03*
G01*
X8890000Y10870006D03*
G01*
X9489998Y10670006D03*
G01*
X8290001Y10670006D03*
G01*
X9489947Y9449993D03*
G36*
X13656309Y6214110D02*
G01*
X13656309Y6384289D01*
X13826490Y6384289D01*
X13826490Y6214110D01*
G37*
D45*
G01*
X13741400Y6045200D03*
G01*
X13741400Y5791200D03*
G01*
X13741400Y5537200D03*
G01*
X13741400Y5283200D03*
G01*
X13741400Y5029200D03*
G01*
X13741400Y4775200D03*
G01*
X13741400Y4521200D03*
G01*
X13741400Y4267200D03*
M02*
